<svg width="253" height="45" viewBox="0 0 253 45" fill="none" xmlns="http://www.w3.org/2000/svg">
<path d="M0 33.6L10.512 0H15.168L25.632 33.6H21.216L18.768 25.248H6.864L4.416 33.6H0ZM12.72 5.664L7.872 21.888H17.76L12.912 5.664H12.72Z" fill="black"/>
<path d="M30.3652 33.6V0H41.5493C45.0373 0 47.6613 0.8 49.4213 2.4C51.1813 4 52.0612 6.048 52.0612 8.544C52.0612 10.496 51.5332 12.112 50.4772 13.392C49.4212 14.64 48.2373 15.52 46.9253 16.032V16.368C48.4933 16.88 49.8692 17.808 51.0532 19.152C52.2373 20.496 52.8293 22.224 52.8293 24.336C52.8293 26.064 52.3973 27.632 51.5333 29.04C50.7013 30.416 49.4693 31.52 47.8372 32.352C46.2373 33.184 44.2693 33.6 41.9333 33.6H30.3652ZM34.3973 14.496H41.2612C43.4052 14.496 45.0372 14.032 46.1572 13.104C47.3092 12.144 47.8853 10.768 47.8853 8.976C47.8853 7.28 47.3252 5.968 46.2052 5.04C45.0852 4.112 43.3893 3.648 41.1173 3.648H34.3973V14.496ZM34.3973 29.904H41.5013C43.8053 29.904 45.5813 29.392 46.8293 28.368C48.0773 27.312 48.7013 25.84 48.7013 23.952C48.7013 22.064 48.0452 20.608 46.7332 19.584C45.4213 18.528 43.6453 18 41.4053 18H34.3973V29.904Z" fill="black"/>
<path d="M60.7305 33.6V30.096H68.3625V3.504H60.7305V0H80.0265V3.504H72.3945V30.096H80.0265V33.6H60.7305Z" fill="black"/>
<path d="M102.616 29.76L89.8477 16.8L102.616 3.936H108.088L95.4157 16.656V16.944L108.088 29.76H102.616Z" fill="black"/>
<path d="M125.925 33.6V3.648H116.901V0H138.981V3.648H129.957V33.6H125.925Z" fill="black"/>
<path d="M149.474 44.16L155.33 31.296H153.938L144.53 9.792H148.898L156.722 28.224L164.978 9.792H169.202L153.698 44.16H149.474Z" fill="black"/>
<path d="M174.848 44.16V9.792H178.111L178.592 13.728H178.88C179.488 12.448 180.463 11.376 181.807 10.512C183.151 9.648 184.735 9.216 186.559 9.216C188.479 9.216 190.208 9.696 191.743 10.656C193.312 11.616 194.543 13.04 195.439 14.928C196.335 16.784 196.784 19.056 196.784 21.744C196.784 24.4 196.319 26.656 195.391 28.512C194.495 30.368 193.248 31.776 191.648 32.736C190.08 33.696 188.271 34.176 186.223 34.176C184.399 34.176 182.848 33.792 181.568 33.024C180.32 32.224 179.424 31.296 178.88 30.24V44.16H174.848ZM185.743 30.336C187.76 30.336 189.424 29.632 190.736 28.224C192.048 26.784 192.704 24.608 192.704 21.696C192.704 18.784 192.048 16.624 190.736 15.216C189.424 13.776 187.76 13.056 185.743 13.056C183.727 13.056 182.063 13.776 180.751 15.216C179.439 16.624 178.783 18.784 178.783 21.696C178.783 24.608 179.439 26.784 180.751 28.224C182.063 29.632 183.727 30.336 185.743 30.336Z" fill="black"/>
<path d="M214.525 34.176C212.285 34.176 210.301 33.664 208.573 32.64C206.877 31.584 205.533 30.128 204.541 28.272C203.549 26.384 203.053 24.192 203.053 21.696C203.053 19.2 203.533 17.024 204.493 15.168C205.485 13.28 206.845 11.824 208.573 10.8C210.301 9.744 212.317 9.216 214.621 9.216C216.925 9.216 218.893 9.744 220.525 10.8C222.157 11.824 223.405 13.184 224.269 14.88C225.133 16.576 225.565 18.4 225.565 20.352C225.565 20.704 225.549 21.056 225.517 21.408C225.517 21.76 225.517 22.16 225.517 22.608H207.037C207.133 24.368 207.533 25.84 208.237 27.024C208.973 28.176 209.885 29.04 210.973 29.616C212.093 30.192 213.277 30.48 214.525 30.48C216.285 30.48 217.661 30.112 218.653 29.376C219.645 28.64 220.397 27.616 220.909 26.304H224.893C224.349 28.512 223.213 30.384 221.485 31.92C219.757 33.424 217.437 34.176 214.525 34.176ZM214.525 12.816C212.669 12.816 211.037 13.376 209.629 14.496C208.253 15.616 207.405 17.184 207.085 19.2H221.581C221.453 17.216 220.733 15.664 219.421 14.544C218.141 13.392 216.509 12.816 214.525 12.816Z" fill="black"/>
<path d="M234.186 29.76L246.858 16.944V16.656L234.186 3.936H239.61L252.378 16.8L239.61 29.76H234.186Z" fill="black"/>
</svg>
