<svg width="253" height="45" viewBox="0 0 253 45" fill="none" xmlns="http://www.w3.org/2000/svg">
<path d="M0.584 34L11.096 0.399994H15.752L26.216 34H21.8L19.352 25.648H7.448L5 34H0.584ZM13.304 6.064L8.456 22.288H18.344L13.496 6.064H13.304Z" fill="white"/>
<path d="M30.9492 34V0.399994H42.1333C45.6213 0.399994 48.2453 1.19999 50.0053 2.79999C51.7653 4.39999 52.6452 6.448 52.6452 8.944C52.6452 10.896 52.1172 12.512 51.0612 13.792C50.0052 15.04 48.8213 15.92 47.5093 16.432V16.768C49.0773 17.28 50.4532 18.208 51.6372 19.552C52.8212 20.896 53.4132 22.624 53.4132 24.736C53.4132 26.464 52.9813 28.032 52.1173 29.44C51.2853 30.816 50.0533 31.92 48.4212 32.752C46.8212 33.584 44.8533 34 42.5173 34H30.9492ZM34.9813 14.896H41.8452C43.9892 14.896 45.6212 14.432 46.7412 13.504C47.8932 12.544 48.4692 11.168 48.4692 9.376C48.4692 7.67999 47.9092 6.36799 46.7892 5.43999C45.6692 4.512 43.9733 4.048 41.7013 4.048H34.9813V14.896ZM34.9813 30.304H42.0853C44.3893 30.304 46.1652 29.792 47.4132 28.768C48.6613 27.712 49.2853 26.24 49.2853 24.352C49.2853 22.464 48.6292 21.008 47.3172 19.984C46.0052 18.928 44.2293 18.4 41.9893 18.4H34.9813V30.304Z" fill="white"/>
<path d="M61.3145 34V30.496H68.9465V3.90399H61.3145V0.399994H80.6105V3.90399H72.9785V30.496H80.6105V34H61.3145Z" fill="white"/>
<path d="M103.2 30.16L90.4317 17.2L103.2 4.33599H108.672L95.9997 17.056V17.344L108.672 30.16H103.2Z" fill="white"/>
<path d="M126.509 34V4.048H117.485V0.399994H139.565V4.048H130.541V34H126.509Z" fill="white"/>
<path d="M150.058 44.56L155.914 31.696H154.522L145.114 10.192H149.482L157.306 28.624L165.562 10.192H169.786L154.282 44.56H150.058Z" fill="white"/>
<path d="M175.432 44.56V10.192H178.695L179.176 14.128H179.464C180.072 12.848 181.047 11.776 182.391 10.912C183.735 10.048 185.319 9.616 187.143 9.616C189.063 9.616 190.792 10.096 192.327 11.056C193.896 12.016 195.127 13.44 196.023 15.328C196.919 17.184 197.368 19.456 197.368 22.144C197.368 24.8 196.903 27.056 195.975 28.912C195.079 30.768 193.832 32.176 192.232 33.136C190.664 34.096 188.855 34.576 186.807 34.576C184.983 34.576 183.432 34.192 182.152 33.424C180.904 32.624 180.008 31.696 179.464 30.64V44.56H175.432ZM186.327 30.736C188.344 30.736 190.008 30.032 191.32 28.624C192.632 27.184 193.288 25.008 193.288 22.096C193.288 19.184 192.632 17.024 191.32 15.616C190.008 14.176 188.344 13.456 186.327 13.456C184.311 13.456 182.647 14.176 181.335 15.616C180.023 17.024 179.367 19.184 179.367 22.096C179.367 25.008 180.023 27.184 181.335 28.624C182.647 30.032 184.311 30.736 186.327 30.736Z" fill="white"/>
<path d="M215.109 34.576C212.869 34.576 210.885 34.064 209.157 33.04C207.461 31.984 206.117 30.528 205.125 28.672C204.133 26.784 203.637 24.592 203.637 22.096C203.637 19.6 204.117 17.424 205.077 15.568C206.069 13.68 207.429 12.224 209.157 11.2C210.885 10.144 212.901 9.616 215.205 9.616C217.509 9.616 219.477 10.144 221.109 11.2C222.741 12.224 223.989 13.584 224.853 15.28C225.717 16.976 226.149 18.8 226.149 20.752C226.149 21.104 226.133 21.456 226.101 21.808C226.101 22.16 226.101 22.56 226.101 23.008H207.621C207.717 24.768 208.117 26.24 208.821 27.424C209.557 28.576 210.469 29.44 211.557 30.016C212.677 30.592 213.861 30.88 215.109 30.88C216.869 30.88 218.245 30.512 219.237 29.776C220.229 29.04 220.981 28.016 221.493 26.704H225.477C224.933 28.912 223.797 30.784 222.069 32.32C220.341 33.824 218.021 34.576 215.109 34.576ZM215.109 13.216C213.253 13.216 211.621 13.776 210.213 14.896C208.837 16.016 207.989 17.584 207.669 19.6H222.165C222.037 17.616 221.317 16.064 220.005 14.944C218.725 13.792 217.093 13.216 215.109 13.216Z" fill="white"/>
<path d="M234.77 30.16L247.442 17.344V17.056L234.77 4.33599H240.194L252.962 17.2L240.194 30.16H234.77Z" fill="white"/>
</svg>
